<?xml version="1.0" standalone="no"?>
<!DOCTYPE svg PUBLIC "-//W3C//DTD SVG 20010904//EN"
 "http://www.w3.org/TR/2001/REC-SVG-20010904/DTD/svg10.dtd">
<svg version="1.0" xmlns="http://www.w3.org/2000/svg"
 width="300.000000pt" height="300.000000pt" viewBox="0 0 300.000000 300.000000"
 preserveAspectRatio="xMidYMid meet">
<metadata>
Created by potrace 1.10, written by Peter Selinger 2001-2011
</metadata>
<g transform="translate(0.000000,300.000000) scale(0.100000,-0.100000)"
fill="#000000" stroke="none">
<path d="M2222 2193 l3 -88 108 -3 107 -3 0 91 0 90 -110 0 -111 0 3 -87z
m183 18 c3 -17 1 -39 -5 -51 -10 -18 -19 -21 -73 -18 l-62 3 -3 33 c-6 57 1
62 72 62 63 0 65 -1 71 -29z"/>
<path d="M2493 2239 c-46 -29 -45 -66 2 -96 19 -13 37 -23 40 -23 3 0 5 32 5
70 0 39 -3 70 -7 70 -5 0 -23 -10 -40 -21z"/>
<path d="M1513 2155 c-32 -14 -59 -55 -82 -127 l-13 -38 -109 0 c-102 0 -109
1 -109 20 0 29 -31 40 -117 40 -82 0 -103 -9 -103 -42 0 -14 -8 -18 -40 -18
-55 0 -103 -22 -129 -58 -21 -29 -21 -38 -21 -392 0 -303 2 -366 15 -390 29
-56 42 -58 388 -62 216 -2 313 0 300 7 -36 20 -103 99 -130 154 -25 51 -28 66
-28 166 0 99 3 116 27 168 35 73 121 160 192 193 72 33 176 44 256 27 115 -23
206 -94 266 -206 38 -70 39 -74 39 -177 0 -98 -2 -110 -32 -170 -29 -60 -76
-117 -128 -155 -18 -13 -10 -14 75 -8 52 3 107 12 122 20 57 28 58 39 58 430
0 341 -1 360 -20 391 -25 40 -73 62 -137 62 l-48 0 -25 67 c-19 51 -33 73 -59
90 -32 22 -43 23 -205 23 -123 -1 -180 -5 -203 -15z m395 -49 c12 -10 28 -39
36 -64 21 -61 52 -92 90 -92 50 0 104 -19 121 -43 12 -18 15 -58 14 -232 -1
-191 -2 -206 -14 -168 -46 145 -132 249 -252 306 -57 26 -83 32 -159 35 -141
6 -234 -30 -330 -130 -95 -99 -129 -189 -122 -327 3 -67 11 -100 32 -148 16
-35 35 -68 42 -74 8 -6 14 -18 14 -25 0 -12 -44 -14 -248 -14 -272 0 -284 2
-299 60 -5 17 -6 183 -3 370 l5 340 27 25 c20 18 38 25 70 25 31 0 49 6 68 25
21 20 37 25 88 26 55 2 65 -1 88 -25 26 -25 31 -26 134 -26 l108 0 26 31 c14
17 29 43 32 57 4 15 13 36 20 47 28 39 52 44 225 42 147 -2 169 -4 187 -21z
m251 -932 c-21 -41 -89 -59 -89 -24 0 11 4 20 8 20 13 0 48 69 68 135 l19 60
3 -85 c2 -51 -2 -93 -9 -106z"/>
<path d="M970 1922 c-31 -25 -33 -65 -5 -97 23 -23 30 -25 118 -25 86 0 96 2
121 25 32 30 33 65 3 93 -21 19 -34 22 -119 22 -77 0 -100 -3 -118 -18z m225
-52 c0 -25 -1 -25 -101 -28 -106 -3 -132 6 -118 42 6 14 21 16 113 14 106 -3
106 -3 106 -28z"/>
<path d="M1674 1739 c-176 -22 -307 -204 -274 -381 50 -259 369 -359 555 -173
65 66 95 137 95 230 0 204 -170 350 -376 324z m173 -68 c57 -29 111 -84 136
-140 26 -58 28 -168 3 -224 -24 -55 -82 -115 -140 -145 -68 -35 -169 -36 -238
-3 -97 47 -168 157 -168 260 0 116 79 223 197 267 53 20 157 13 210 -15z"/>
<path d="M665 1391 c-169 -59 -265 -129 -265 -195 0 -58 36 -96 140 -149 109
-55 264 -97 447 -122 65 -9 132 -19 148 -21 29 -4 31 -6 27 -40 -3 -28 -1 -35
9 -31 8 3 76 20 151 39 76 18 138 36 138 39 0 4 -21 14 -47 24 -27 10 -90 38
-142 62 -51 23 -95 43 -97 43 -2 0 -4 -18 -4 -40 0 -48 11 -47 -172 -20 -269
40 -464 114 -504 192 -19 37 -13 67 23 103 32 32 151 92 200 101 24 4 33 12
33 25 0 11 -1 19 -2 18 -2 0 -39 -13 -83 -28z m610 -441 c25 -11 44 -24 41
-29 -3 -5 -27 -14 -52 -20 -43 -11 -49 -10 -68 8 -19 20 -19 21 -1 41 22 25
23 25 80 0z"/>
<path d="M2250 1400 c0 -12 10 -20 33 -24 18 -3 64 -21 102 -40 172 -82 175
-168 10 -249 -149 -74 -490 -137 -737 -137 l-98 0 0 -30 0 -30 73 0 c172 0
464 39 638 86 155 41 286 110 315 165 48 93 -37 176 -253 250 -77 26 -83 26
-83 9z"/>
</g>
</svg>
