<?xml version="1.0" standalone="no"?>
<!DOCTYPE svg PUBLIC "-//W3C//DTD SVG 20010904//EN"
 "http://www.w3.org/TR/2001/REC-SVG-20010904/DTD/svg10.dtd">
<svg version="1.0" xmlns="http://www.w3.org/2000/svg"
 width="300.000000pt" height="300.000000pt" viewBox="0 0 300.000000 300.000000"
 preserveAspectRatio="xMidYMid meet">
<metadata>
Created by potrace 1.10, written by Peter Selinger 2001-2011
</metadata>
<g transform="translate(0.000000,300.000000) scale(0.100000,-0.100000)"
fill="#000000" stroke="none">
<path d="M2237 2196 c-4 -9 -23 -16 -49 -18 l-43 -3 -3 -112 -3 -113 161 0
161 0 -3 113 -3 112 -39 1 c-25 0 -41 6 -48 17 -12 23 -123 25 -131 3z m-33
-83 c-11 -24 -10 -83 1 -107 6 -14 5 -18 -6 -14 -10 3 -15 25 -17 71 -2 57 0
67 14 67 12 0 14 -5 8 -17z m148 0 c27 -24 24 -87 -4 -107 -71 -50 -159 43
-98 104 24 24 77 26 102 3z"/>
<path d="M1027 1889 c-44 -26 -47 -51 -47 -374 0 -325 3 -350 49 -375 13 -6
165 -10 421 -10 l402 0 34 34 34 34 0 317 0 317 -34 34 -34 34 -404 0 c-255 0
-409 -4 -421 -11z m828 -54 l25 -24 0 -296 0 -296 -25 -24 -24 -25 -385 0
c-383 0 -385 0 -406 22 -19 21 -20 34 -20 323 0 289 1 302 20 323 21 22 23 22
406 22 l385 0 24 -25z"/>
<path d="M2264 1790 c-16 -3 -90 -40 -162 -84 l-133 -79 3 -114 3 -115 40 -23
c22 -12 85 -49 140 -81 55 -32 111 -59 124 -59 24 0 24 2 22 68 -2 68 -2 69
21 62 89 -28 183 -96 194 -142 15 -59 -75 -130 -233 -181 -144 -47 -448 -92
-625 -92 l-98 0 0 -30 0 -30 73 0 c256 0 640 68 797 141 126 58 170 102 170
169 0 58 -107 139 -240 181 l-55 17 -2 197 c-1 108 -3 198 -5 199 -2 1 -17 -1
-34 -4z m-3 -187 c0 -76 2 -154 5 -173 6 -50 -5 -140 -18 -140 -12 0 -196 106
-220 128 -25 21 -26 173 -2 193 30 25 209 129 222 129 9 0 12 -34 13 -137z"/>
<path d="M665 1391 c-169 -59 -265 -129 -265 -195 0 -58 36 -96 140 -149 109
-55 264 -97 447 -122 65 -9 132 -19 148 -21 29 -4 31 -6 27 -40 -3 -28 -1 -35
9 -31 8 3 76 20 151 39 76 18 138 36 138 39 0 4 -21 14 -47 24 -27 10 -90 38
-142 62 -51 23 -95 43 -97 43 -2 0 -4 -18 -4 -40 0 -48 11 -47 -172 -20 -269
40 -464 114 -504 192 -19 37 -13 67 23 103 32 32 151 92 200 101 24 4 33 12
33 25 0 11 -1 19 -2 18 -2 0 -39 -13 -83 -28z m610 -441 c25 -11 44 -24 41
-29 -3 -5 -27 -14 -52 -20 -43 -11 -49 -10 -68 8 -19 20 -19 21 -1 41 22 25
23 25 80 0z"/>
</g>
</svg>
