<?xml version="1.0" standalone="no"?>
<!DOCTYPE svg PUBLIC "-//W3C//DTD SVG 20010904//EN"
 "http://www.w3.org/TR/2001/REC-SVG-20010904/DTD/svg10.dtd">
<svg version="1.0" xmlns="http://www.w3.org/2000/svg"
 width="512.000000pt" height="512.000000pt" viewBox="0 0 512.000000 512.000000"
 preserveAspectRatio="xMidYMid meet">

<g transform="translate(0.000000,512.000000) scale(0.100000,-0.100000)"
fill="#000000" stroke="none">
<path d="M536 4950 c-52 -16 -95 -54 -141 -125 -66 -100 -208 -391 -250 -514
-189 -550 -189 -1145 1 -1692 73 -212 239 -525 314 -593 47 -42 72 -50 145
-44 108 9 190 101 190 213 0 55 -5 69 -62 170 -92 163 -147 286 -197 436 -84
252 -111 445 -103 734 11 391 100 688 322 1070 45 78 46 82 43 152 -3 62 -7
76 -34 110 -56 69 -156 106 -228 83z"/>
<path d="M4480 4951 c-111 -36 -167 -116 -158 -225 3 -41 18 -76 76 -176 263
-457 353 -958 262 -1465 -44 -247 -131 -481 -265 -710 -67 -114 -80 -161 -65
-226 14 -56 72 -128 124 -153 84 -40 195 -8 248 71 298 439 449 1020 409 1573
-33 458 -172 874 -409 1223 -46 68 -153 111 -222 88z"/>
<path d="M1425 4396 c-116 -50 -278 -379 -336 -681 -19 -94 -19 -407 0 -500
43 -223 137 -455 240 -591 82 -110 218 -125 322 -35 23 19 50 53 60 75 35 77
26 113 -72 281 -169 291 -190 658 -55 949 18 39 52 102 75 139 51 83 66 137
57 200 -19 127 -174 214 -291 163z"/>
<path d="M3521 4389 c-49 -25 -95 -83 -113 -141 -15 -52 3 -129 48 -204 144
-238 196 -462 161 -700 -20 -140 -66 -281 -125 -381 -105 -181 -112 -201 -92
-273 24 -85 128 -160 223 -160 106 0 168 62 273 270 54 108 96 230 126 361 20
90 23 131 23 304 0 218 -9 283 -67 465 -56 178 -183 402 -254 450 -52 35 -143
39 -203 9z"/>
<path d="M2458 3879 c-113 -26 -229 -122 -284 -234 -27 -56 -29 -68 -29 -175
0 -104 3 -120 27 -173 37 -78 77 -127 137 -168 28 -19 51 -39 51 -46 0 -6
-172 -609 -382 -1340 -277 -967 -381 -1342 -381 -1378 0 -80 47 -147 125 -179
43 -18 143 -21 185 -5 39 14 88 64 107 107 9 21 133 469 277 997 144 528 264
963 268 967 3 4 125 -430 271 -965 146 -535 274 -990 285 -1011 11 -22 37 -53
58 -70 32 -26 49 -31 107 -34 38 -2 84 1 105 8 74 24 144 113 145 183 0 15
-173 632 -385 1372 -212 739 -385 1348 -385 1354 0 5 9 13 21 16 37 12 138
121 164 177 112 245 -19 527 -275 594 -60 15 -154 17 -212 3z"/>
</g>
</svg>
